# xmcd
#
# Track frame offsets:
#	180
#	14281
#	26333
#	38090
#	50252
#	61823
#	73356
#	83508
#	97307
#	109815
#	120329
#	132404
#	144297
#	155059
#	165888
#	174574
#	184739
#	193876
#	205939
#	218277
#	229191
#	240985
#	252874
#	264220
#	278172
#	289195
#	300795
#	314206
#
# Disc length: 4361 seconds
#
# Revision: 1
# Processed by: cddbd v1.5.1PL2 Copyright (c) Steve Scherf et al.
# Submitted via: audiograbber 1.83.01
#
DISCID=8011071c
DTITLE=Various Artist - Chicken Shack Boogie Vol 4
DYEAR=1900
DGENRE=R&B
TTITLE0=Jimmy McCracklin - Savoy Jump
TTITLE1=The Checkers - Let Me Come Back
TTITLE2=Wynonie Harris - Playful Baby
TTITLE3=Big Boy Groves - Got a New Car
TTITLE4=Snookum Russell - Juke Box Boogie Woogie Chick
TTITLE5=The Roamers - Deep Freeze
TTITLE6=Johnny Otis - Lawdy Mis Clawdy
TTITLE7=Julian Dash - Coolin' with Dash
TTITLE8=Professor Longhair - Curly Haired Baby
TTITLE9=The Robins - That's What the Good Book say
TTITLE10=Joe Dyson - Merc-O-Matic Boogie
TTITLE11=The Sly Fox - Alley Music
TTITLE12=The Spiders - Tears Began to Flow
TTITLE13=Dave Bartholomew - The Monkey
TTITLE14=Hal Paige and The Wailers - Thunderbird
TTITLE15=Arthur Lee Maye and the Crowns - That's what I'm Gonna Do
TTITLE16=Rudy Greene - Meet Me Baby
TTITLE17=Richard Berry - Good Love
TTITLE18=Bob Gaddy - Slow Down Baby
TTITLE19=Joe weaver - Baby I'm in Love with You
TTITLE20=The Royales - Don't Give More than You Can Take
TTITLE21=Piano Red - I Ain't Nobody's Fool
TTITLE22=Jimmy Witherspoon - Move Me Baby
TTITLE23=Rosco Gordon - Booted
TTITLE24=The echoes - All that Wine Is Gone
TTITLE25=Faye Simmons - Whim, Wham, Whop
TTITLE26=The 5 Crowns - You Win Again
TTITLE27=Phillip Walker - Louisiana walk
EXTD=
EXTT0=
EXTT1=
EXTT2=
EXTT3=
EXTT4=
EXTT5=
EXTT6=
EXTT7=
EXTT8=
EXTT9=
EXTT10=
EXTT11=
EXTT12=
EXTT13=
EXTT14=
EXTT15=
EXTT16=
EXTT17=
EXTT18=
EXTT19=
EXTT20=
EXTT21=
EXTT22=
EXTT23=
EXTT24=
EXTT25=
EXTT26=
EXTT27=
PLAYORDER=
